# xmcd
#
# Track frame offsets:
#  150
#  9697
#  29715
#  45622
#  58934
#  76030
#  89833
#  111802
#  117154
#  148046
#  160769
#  185769
#  206978
#  220628
#  241617
#  258665
#  275977
#  290809
#
# Disc length: 4095 seconds
#
# Revision: 0
# Processed by: cddbd v1.4PL0 Copyright (c) Steve Scherf et al.
# Submitted via: AltoMP3_Maker 3.0
#
DISCID=1b0ffd12
DTITLE=Lloyd Thayer - Look Free Sidewalk Sale
DYEAR=1900
DGENRE=
TTITLE0=Porter Square
TTITLE1=I Remember Dirt
TTITLE2=When You Get In Your Way
TTITLE3=I'd Rather Be Right Than Happy
TTITLE4=Boredom
TTITLE5=Writing On The Wall
TTITLE6=Already Home
TTITLE7=Harvard Square
TTITLE8=Life's Like a Railway Station
TTITLE9=Resentment
TTITLE10=Hollywood Hills
TTITLE11=Relatives
TTITLE12=Emotional Pain
TTITLE13=Pangs
TTITLE14=Horse/Smells
TTITLE15=Moron
TTITLE16=You Got To Move
TTITLE17=Going Home
EXTD=
EXTT0=
EXTT1=
EXTT2=
EXTT3=
EXTT4=
EXTT5=
EXTT6=
EXTT7=
EXTT8=
EXTT9=
EXTT10=
EXTT11=
EXTT12=
EXTT13=
EXTT14=
EXTT15=
EXTT16=
EXTT17=
PLAYORDER=
